M48
;FILE_FORMAT=2:4
INCH
;TYPE=PLATED
T01C0.012
T02C0.036
%
T01
X+021704Y+019191
X+021310
X+023042Y+020530
X+023357
X+022373Y+023128
X+021782
X+021349Y+021947
X+022767Y+024703
X+023396
X+022097
X+022454Y+026360
X+021454
X+023329
X+025995Y+019703
X+026349Y+020451
X+026743Y+020176
Y+020727
X+024656Y+022538
Y+022931
Y+023325
X+025641Y+022538
X+025050
Y+022931
Y+023325
X+025483Y+022892
Y+023404
X+026034Y+022774
X+026074Y+022144
X+024302Y+026081
X+024893Y+025333
X+029184Y+018601
X+028790
Y+018994
X+027727Y+022853
X+027412Y+021829
X+028239Y+025845
X+027845
X+027924Y+025136
X+029578Y+027262
X+022648Y+021042
X+022019
X+023475Y+020963
X+025483Y+023876
X+029578Y+026869
X+029184
X+024144Y+022459
Y+023089
T02
X+020504Y+026510
Y+024510
Y+023510
Y+021510
Y+020510
Y+025510
Y+022510
X+029504Y+025510
Y+023510
Y+022510
Y+020510
Y+019510
Y+024510
Y+021510
X+021504Y+018510
X+023504
X+024504
X+026504
X+027504
X+022504
X+025504
X+028504Y+027510
X+026504
X+025504
X+023504
X+022504
X+027504
X+024504
T00
M30
