M48
;FILE_FORMAT=2:4
INCH
;TYPE=PLATED
T01C0.038
T02C0.059
%
T01
X+250882Y+280088
Y+281088
Y+283088
Y+284088
Y+286088
X+252882Y+281088
X+253882
Y+280088
X+252882
X+253882Y+284088
X+252882
Y+283088
X+253882
X+252882Y+286088
X+253882

X+256882Y+281088
X+255882
X+256882Y+280088
X+255882
X+256882Y+284088
X+255882
Y+283088
X+256882
X+255882Y+286088
X+256882
X+250882Y+279088
Y+282088
Y+285088
X+253882Y+279088
X+252882
Y+285088
X+253882
Y+282088
X+252882
X+256882Y+279088
X+255882
Y+285088
X+256882
Y+282088
X+255882
X+251882Y+281088
Y+280088
Y+284088
Y+283088
Y+286088
X+257882Y+281088
Y+280088
X+254882Y+281088
Y+280088
X+257882Y+284088
Y+283088
X+254882Y+284088
Y+283088
Y+286088
X+257882
X+251882Y+279088
Y+285088
Y+282088
X+257882Y+285088
Y+282088
Y+279088
X+254882
Y+285088
Y+282088
T02
X+249882Y+280088
Y+282088
Y+283088
Y+285088
Y+286088
Y+281088
Y+284088
X+258882Y+279088
Y+281088
Y+282088
Y+284088
Y+285088
Y+280088
Y+283088
X+250882Y+278088
X+252882
X+253882
X+255882
X+256882
X+251882
X+254882
X+257882Y+287088
X+255882
X+254882
X+252882
X+251882
X+256882
X+253882
T00
M30
