M48
;FILE_FORMAT=2:4
INCH
;TYPE=PLATED
T01C0.018
T02C0.031
T03C0.036
T04C0.038
T05C0.108
%
T01
X+020118Y+040000
X+019606Y+048425
T02
X+020079Y+037207
X+021969Y+036223
X+020079Y+034845
T03
X+038000Y+035500
Y+036500
X+037000Y+035500
Y+036500
Y+046500
Y+045500
Y+042500
Y+043500
Y+041500
Y+044500
X+038000Y+046500
Y+045500
Y+042500
Y+043500
Y+041500
Y+044500
X+040000Y+035500
Y+036500
Y+046500
Y+045500
Y+042500
Y+043500
Y+041500
Y+044500
X+025032Y+034608
Y+036608
Y+037608
Y+039608
Y+040608
Y+035608
Y+038608
X+034032Y+033608
Y+035608
Y+036608
Y+038608
Y+039608
Y+034608
Y+037608
X+038000Y+039500
Y+038500
Y+040500
Y+037500
X+037000Y+039500
Y+038500
Y+040500
Y+037500
X+040000Y+039500
Y+038500
Y+040500
Y+037500
X+021500Y+040000
Y+041000
Y+039000
X+018000Y+040000
Y+041000
Y+039000
X+036000Y+035500
Y+036500
Y+046500
Y+045500
Y+042500
Y+043500
Y+041500
Y+044500
X+033032Y+041608
X+031032
X+030032
X+028032
X+027032
X+032032
X+029032
X+034000Y+045500
Y+044500
Y+046500
Y+043500
X+039000Y+035500
Y+036500
Y+046500
Y+045500
Y+042500
Y+043500
Y+041500
Y+044500
X+036000Y+039500
Y+038500
Y+040500
Y+037500
X+039000Y+039500
Y+038500
Y+040500
Y+037500
X+026032Y+032608
X+028032
X+029032
X+031032
X+032032
X+027032
X+030032
X+035649Y+051665
X+036649
X+032649
X+033649
X+029649
X+030649
X+026649
X+027649
X+023649
X+024649
X+020649
X+021649
X+018649
X+037649
X+034649
X+031649
X+028649
X+025649
X+022649
X+019649
X+035649Y+052665
X+036649
X+032649
X+033649
X+029649
X+030649
X+026649
X+027649
X+023649
X+024649
X+020649
X+021649
X+018649
X+037649
X+034649
X+031649
X+028649
X+025649
X+022649
X+019649
X+035649Y+049213
X+036649
X+032649
X+033649
X+029649
X+030649
X+026649
X+027649
X+023649
X+024649
X+020649
X+021649
X+018649
X+037649
X+034649
X+031649
X+028649
X+025649
X+022649
X+019649
X+035649Y+050213
X+036649
X+032649
X+033649
X+029649
X+030649
X+026649
X+027649
X+023649
X+024649
X+020649
X+021649
X+018649
X+037649
X+034649
X+031649
X+028649
X+025649
X+022649
X+019649
T04
X+022000Y+043500
X+021000
X+019000
X+018000
X+021000Y+046500
X+022000
X+018000
X+019000
X+023000Y+043500
X+020000
Y+046500
X+023000
X+032000Y+043500
X+029000
X+030000
X+026000
X+027000
X+032000Y+046500
X+030000
X+029000
X+027000
X+026000
X+031000Y+043500
X+028000
X+025000
X+031000Y+046500
X+028000
X+025000
T05
X+016732Y+032874
Y+052165
X+039567Y+032874
Y+052165
T00
M30
